{
  "accessors": [
    {
      "bufferView": 2,
      "componentType": 5126,
      "count": 1269,
      "max": [
        0.8508897423744202,
        0.8504164814949036,
        0.8150062561035156
      ],
      "min": [
        -0.8508897423744202,
        -0.8504164218902588,
        -0.8150062561035156
      ],
      "type": "VEC3"
    },
    {
      "bufferView": 2,
      "byteOffset": 15228,
      "componentType": 5126,
      "count": 1269,
      "max": [
        0.9999426603317261,
        0.9991065263748169,
        0.9706894159317017
      ],
      "min": [
        -0.9999426603317261,
        -0.9991065263748169,
        -0.9706894159317017
      ],
      "type": "VEC3"
    },
    {
      "bufferView": 1,
      "componentType": 5126,
      "count": 1269,
      "max": [
        0.9663428664207458,
        0.4192728102207184
      ],
      "min": [
        0.033657506108284,
        0.053109172731637955
      ],
      "type": "VEC2"
    },
    {
      "bufferView": 0,
      "componentType": 5125,
      "count": 5760,
      "type": "SCALAR"
    },
    {
      "bufferView": 2,
      "byteOffset": 30456,
      "componentType": 5126,
      "count": 3899,
      "max": [
        0.8267397284507751,
        0.8182023167610168,
        0.8508897423744202
      ],
      "min": [
        -0.8267397284507751,
        -0.8182023167610168,
        -0.8508897423744202
      ],
      "type": "VEC3"
    },
    {
      "bufferView": 2,
      "byteOffset": 77244,
      "componentType": 5126,
      "count": 3899,
      "max": [
        0.9841983318328857,
        1.0,
        1.0
      ],
      "min": [
        -0.9841983318328857,
        -1.0,
        -1.0
      ],
      "type": "VEC3"
    },
    {
      "bufferView": 1,
      "byteOffset": 10152,
      "componentType": 5126,
      "count": 3899,
      "max": [
        0.9741840958595276,
        0.4244605600833893
      ],
      "min": [
        0.029551832005381584,
        0.04792150482535362
      ],
      "type": "VEC2"
    },
    {
      "bufferView": 0,
      "byteOffset": 23040,
      "componentType": 5125,
      "count": 15840,
      "type": "SCALAR"
    }
  ],
  "asset": {
    "extras": {
      "author": "marc.antoni.furio (https://sketchfab.com/marc.antoni.furio)",
      "license": "CC-BY-4.0 (http://creativecommons.org/licenses/by/4.0/)",
      "source": "https://sketchfab.com/3d-models/clasic-football-9b26f4a859e64fa392e16d68347773cf",
      "title": "Clasic Football"
    },
    "generator": "Sketchfab-12.45.0",
    "version": "2.0"
  },
  "bufferViews": [
    {
      "buffer": 0,
      "byteLength": 86400,
      "name": "floatBufferViews",
      "target": 34963
    },
    {
      "buffer": 0,
      "byteLength": 41344,
      "byteOffset": 86400,
      "byteStride": 8,
      "name": "floatBufferViews",
      "target": 34962
    },
    {
      "buffer": 0,
      "byteLength": 124032,
      "byteOffset": 127744,
      "byteStride": 12,
      "name": "floatBufferViews",
      "target": 34962
    }
  ],
  "buffers": [
    {
      "byteLength": 251776,
      "uri": "scene.bin"
    }
  ],
  "materials": [
    {
      "doubleSided": true,
      "name": "Hueso",
      "pbrMetallicRoughness": {
        "metallicFactor": 0.0
      }
    },
    {
      "doubleSided": true,
      "name": "Material.004",
      "pbrMetallicRoughness": {
        "baseColorFactor": [
          0.0,
          0.0,
          0.0,
          1.0
        ],
        "metallicFactor": 0.0
      }
    }
  ],
  "meshes": [
    {
      "name": "Icosphere.007_Hueso_0",
      "primitives": [
        {
          "attributes": {
            "NORMAL": 1,
            "POSITION": 0,
            "TEXCOORD_0": 2
          },
          "indices": 3,
          "material": 0,
          "mode": 4
        }
      ]
    },
    {
      "name": "Icosphere.007_Material.004_0",
      "primitives": [
        {
          "attributes": {
            "NORMAL": 5,
            "POSITION": 4,
            "TEXCOORD_0": 6
          },
          "indices": 7,
          "material": 1,
          "mode": 4
        }
      ]
    }
  ],
  "nodes": [
    {
      "children": [
        1
      ],
      "matrix": [
        1.0,
        0.0,
        0.0,
        0.0,
        0.0,
        2.220446049250313e-16,
        -1.0,
        0.0,
        0.0,
        1.0,
        2.220446049250313e-16,
        0.0,
        0.0,
        0.0,
        0.0,
        1.0
      ],
      "name": "Sketchfab_model"
    },
    {
      "children": [
        2
      ],
      "matrix": [
        0.009999999776482582,
        0.0,
        0.0,
        0.0,
        0.0,
        0.0,
        0.009999999776482582,
        0.0,
        0.0,
        -0.009999999776482582,
        0.0,
        0.0,
        0.0,
        0.0,
        0.0,
        1.0
      ],
      "name": "a010825910f04a12ae0e550e01863fa3.fbx"
    },
    {
      "children": [
        3
      ],
      "name": "RootNode"
    },
    {
      "children": [
        4,
        5
      ],
      "matrix": [
        351.7382507324219,
        0.0,
        0.0,
        0.0,
        0.0,
        -5.7305434777420515e-05,
        -351.7382507324172,
        0.0,
        0.0,
        351.7382507324172,
        -5.7305434777420515e-05,
        0.0,
        77.17072296142578,
        23.222183227539063,
        -79.67347717285156,
        1.0
      ],
      "name": "Icosphere.007"
    },
    {
      "mesh": 0,
      "name": "Icosphere.007_Hueso_0"
    },
    {
      "mesh": 1,
      "name": "Icosphere.007_Material.004_0"
    }
  ],
  "scene": 0,
  "scenes": [
    {
      "name": "Sketchfab_Scene",
      "nodes": [
        0
      ]
    }
  ]
}
